<svg id="Layer_1" data-name="Layer 1" xmlns="http://www.w3.org/2000/svg" viewBox="0 0 359.87 128"><defs><style>.cls-1{fill:#fff;stroke:#414042;stroke-miterlimit:10;}.cls-2{fill:#414042;}.cls-3{fill:#fec245;}.cls-4{fill:#3b3c3c;}</style></defs><title>resources</title><path class="cls-1" d="M107.49,42.49H44.39v-19a.85.85,0,0,0-.85-.84H9.86a.85.85,0,0,0-.85.84v80.94a.85.85,0,0,0,.85.84h97.63a.85.85,0,0,0,.85-.84V43.34A.85.85,0,0,0,107.49,42.49Z"/><path class="cls-1" d="M107.31,22.69H79.58a.87.87,0,0,0-.85.89v15.9a.87.87,0,0,0,.85.9h27.73a.87.87,0,0,0,.85-.9V23.58A.87.87,0,0,0,107.31,22.69Z"/><path class="cls-1" d="M47.6,40.38H75.33a.87.87,0,0,0,.85-.9V23.58a.87.87,0,0,0-.85-.89H47.6a.87.87,0,0,0-.85.89v15.9A.87.87,0,0,0,47.6,40.38Z"/><rect class="cls-2" x="15.24" y="55.49" width="83.76" height="5.66"/><rect class="cls-3" x="15.24" y="66.81" width="34.52" height="5.66"/><rect class="cls-4" x="53.72" y="66.81" width="34.52" height="5.66"/><rect class="cls-4" x="15.24" y="77.85" width="83.76" height="5.66"/><rect class="cls-4" x="15.24" y="89.17" width="18.68" height="5.66"/><rect class="cls-3" x="36.74" y="89.17" width="62.26" height="5.66"/><path class="cls-3" d="M142.55,55.24h3.2V48.3h3.44v6.94h7.31v3h-7.31V71.74a3.59,3.59,0,0,0,1.07,3,4.39,4.39,0,0,0,2.8.85,6.92,6.92,0,0,0,1.68-.19,7.84,7.84,0,0,0,1.67-.62v2.92a7.08,7.08,0,0,1-1.9.74,9.77,9.77,0,0,1-2.25.24,9.3,9.3,0,0,1-2.58-.35,5.17,5.17,0,0,1-2.08-1.12,5.3,5.3,0,0,1-1.36-2,8.11,8.11,0,0,1-.49-3V58.27h-3.2Z"/><path class="cls-3" d="M163.55,66a10,10,0,0,1,3.12-1.43,15.28,15.28,0,0,1,4-.49,24,24,0,0,1,3.87.28,30.67,30.67,0,0,1,3.22.7v-.8a6,6,0,0,0-1.8-4.72,7.41,7.41,0,0,0-5.07-1.59,13.79,13.79,0,0,0-3.71.47,20.72,20.72,0,0,0-3.28,1.23l-1-2.8a23.76,23.76,0,0,1,3.88-1.39,17.78,17.78,0,0,1,4.49-.51q4.76,0,7.29,2.34T181,64.19V78.26h-3.31V74.78a11.27,11.27,0,0,1-3.23,2.78,9.87,9.87,0,0,1-5.1,1.21,11.14,11.14,0,0,1-3.14-.45A8.43,8.43,0,0,1,163.5,77a7,7,0,0,1-1.95-2.25,6.51,6.51,0,0,1-.74-3.17,7,7,0,0,1,.72-3.23A6.32,6.32,0,0,1,163.55,66Zm1.17,7.4A4.5,4.5,0,0,0,166,74.82a6,6,0,0,0,1.85.91,7.67,7.67,0,0,0,2.21.32,9.49,9.49,0,0,0,3-.47,8,8,0,0,0,2.46-1.3,6.23,6.23,0,0,0,1.65-2,5.21,5.21,0,0,0,.61-2.51V67.56c-.87-.23-1.86-.45-3-.67a20.87,20.87,0,0,0-3.82-.31,8.14,8.14,0,0,0-5,1.31,4.16,4.16,0,0,0-1.73,3.52A3.92,3.92,0,0,0,164.72,73.37Z"/><path class="cls-3" d="M188.34,45.75h3.44V59.88a18.32,18.32,0,0,1,1.57-2,9.76,9.76,0,0,1,1.94-1.63,10.19,10.19,0,0,1,2.38-1.11,9.23,9.23,0,0,1,2.92-.43,10.79,10.79,0,0,1,4,.8,10.47,10.47,0,0,1,3.53,2.34,11.48,11.48,0,0,1,2.49,3.77,14.2,14.2,0,0,1,0,10.16,11.54,11.54,0,0,1-2.47,3.76,10.8,10.8,0,0,1-7.6,3.2,10.07,10.07,0,0,1-2.93-.41,9.44,9.44,0,0,1-2.41-1.07,10.26,10.26,0,0,1-1.94-1.57,14.89,14.89,0,0,1-1.53-1.87v4.41h-3.44Zm5.86,27.48a8.43,8.43,0,0,0,2.68,1.8,7.73,7.73,0,0,0,3.1.65,8.34,8.34,0,0,0,3.13-.6,7.22,7.22,0,0,0,2.59-1.74,8.4,8.4,0,0,0,1.73-2.8,10.31,10.31,0,0,0,.64-3.75,10.08,10.08,0,0,0-.64-3.7,8.62,8.62,0,0,0-1.75-2.83,7.46,7.46,0,0,0-2.58-1.81,8,8,0,0,0-3.12-.62,7.89,7.89,0,0,0-3.1.64,8.63,8.63,0,0,0-2.68,1.81,8.44,8.44,0,0,0-1.87,2.8,9.31,9.31,0,0,0-.68,3.65,9.45,9.45,0,0,0,.68,3.67A8.37,8.37,0,0,0,194.2,73.23Z"/><path class="cls-2" d="M217,61.78a11.89,11.89,0,0,1,2.38-3.9A11.34,11.34,0,0,1,223,55.22a10.86,10.86,0,0,1,4.64-1,11.2,11.2,0,0,1,4.92,1A10.12,10.12,0,0,1,236.11,58a12,12,0,0,1,2.13,4.06A16.56,16.56,0,0,1,239,67c0,.23,0,.47,0,.71s0,.49-.06.75h-17.3a7.18,7.18,0,0,0,2.31,4.44,6.66,6.66,0,0,0,4.45,1.54,7.85,7.85,0,0,0,3.49-.72,11.74,11.74,0,0,0,2.89-2.09l3.18,2.81a13,13,0,0,1-4,3.21,12,12,0,0,1-5.6,1.21,12.65,12.65,0,0,1-4.74-.89,11.43,11.43,0,0,1-6.4-6.37,12.82,12.82,0,0,1-.94-5A13.18,13.18,0,0,1,217,61.78Zm16.58,3.08a9.17,9.17,0,0,0-.58-2.44,6.21,6.21,0,0,0-1.2-2,5.51,5.51,0,0,0-4.18-1.81,5.46,5.46,0,0,0-4.14,1.72,7.66,7.66,0,0,0-2,4.48Z"/><path class="cls-2" d="M246.49,57.43a10.09,10.09,0,0,1,3.5-2.38,10.53,10.53,0,0,1,4-.81,8.73,8.73,0,0,1,4.83,1.25,13.13,13.13,0,0,1,3.22,2.91V45.73h5.39V78.27h-5.39v-3.9a12.68,12.68,0,0,1-3.25,3.11,8.49,8.49,0,0,1-4.8,1.29,10.4,10.4,0,0,1-4-.81,10,10,0,0,1-3.47-2.39,12.26,12.26,0,0,1-2.45-3.85,13.54,13.54,0,0,1-.94-5.22,14,14,0,0,1,.91-5.21A11.88,11.88,0,0,1,246.49,57.43Zm2.59,12.22A7,7,0,0,0,250.56,72a6.56,6.56,0,0,0,7.37,1.51A6.33,6.33,0,0,0,260.12,72a7.58,7.58,0,0,0,1.5-2.39,9.15,9.15,0,0,0,0-6.25,7.47,7.47,0,0,0-1.5-2.39,6.36,6.36,0,0,0-2.19-1.54,6.58,6.58,0,0,0-2.58-.53,6.81,6.81,0,0,0-2.63.51,6.19,6.19,0,0,0-2.16,1.5,6.91,6.91,0,0,0-1.48,2.38,9.08,9.08,0,0,0-.53,3.19A8.89,8.89,0,0,0,249.08,69.65Z"/><path class="cls-2" d="M274.31,46h5.79v5.14h-5.79Zm.22,8.75h5.4V78.26h-5.4Z"/><path class="cls-2" d="M285.09,54.7h3V48.23h5.39V54.7h6.32v4.63h-6.32V70.87a2.9,2.9,0,0,0,.77,2.25,3,3,0,0,0,2.13.68,7.35,7.35,0,0,0,3.33-.8v4.45a9.27,9.27,0,0,1-2.18.9,10.64,10.64,0,0,1-2.67.31,9.71,9.71,0,0,1-2.71-.36A5.36,5.36,0,0,1,290,77.14a5.09,5.09,0,0,1-1.4-2.14,9.45,9.45,0,0,1-.49-3.28V59.33h-3Z"/><path class="cls-2" d="M306.83,57.86a12.42,12.42,0,0,1,4-2.64,12.68,12.68,0,0,1,5-1,12.87,12.87,0,0,1,5,1,11.92,11.92,0,0,1,6.56,6.52,12.21,12.21,0,0,1,.94,4.76,12,12,0,0,1-1,4.78,12.33,12.33,0,0,1-2.62,3.9,12.51,12.51,0,0,1-4,2.66,12.65,12.65,0,0,1-5,1,12.77,12.77,0,0,1-5-1,12.21,12.21,0,0,1-4-2.64,11.89,11.89,0,0,1-2.61-3.89,12.57,12.57,0,0,1,0-9.54A12.31,12.31,0,0,1,306.83,57.86Zm3.83,14a7.07,7.07,0,0,0,2.27,1.64,6.73,6.73,0,0,0,2.88.61,6.84,6.84,0,0,0,3-.61,7,7,0,0,0,3.67-4,8.48,8.48,0,0,0,.49-2.92,8.3,8.3,0,0,0-.53-2.95,7.75,7.75,0,0,0-1.5-2.43,7,7,0,0,0-2.27-1.66,7.27,7.27,0,0,0-5.83,0,6.88,6.88,0,0,0-2.25,1.64,7,7,0,0,0-1.43,2.39,8.73,8.73,0,0,0-.49,2.92,8.45,8.45,0,0,0,.53,3A7.32,7.32,0,0,0,310.66,71.88Z"/><path class="cls-2" d="M333.81,54.74h5.4V60a10.62,10.62,0,0,1,3.17-4.27,7.46,7.46,0,0,1,4.7-1.48h.46V60h-.3a8.76,8.76,0,0,0-3.26.58,7.07,7.07,0,0,0-2.53,1.74,8,8,0,0,0-1.66,2.92,12.94,12.94,0,0,0-.58,4.07v9h-5.4Z"/></svg>