<svg id="Layer_1" data-name="Layer 1" xmlns="http://www.w3.org/2000/svg" viewBox="0 0 359.87 128"><defs><style>.cls-1{fill:#fff;stroke:#414042;stroke-miterlimit:10;}.cls-2,.cls-6,.cls-7,.cls-8{fill:#414042;}.cls-3,.cls-5{fill:#fec245;}.cls-4{fill:#3b3c3c;}.cls-5{font-size:44.57px;font-family:Gotham-Book, Gothm;}.cls-6,.cls-7,.cls-8{font-family:Gotham-Medium, Gothm;}.cls-6{letter-spacing:0em;}.cls-7{letter-spacing:-0.02em;}</style></defs><title>tabeditor</title><path class="cls-1" d="M107.49,42.49H44.39v-19a.85.85,0,0,0-.85-.84H9.86a.85.85,0,0,0-.85.84v80.94a.85.85,0,0,0,.85.84h97.63a.85.85,0,0,0,.85-.84V43.34A.85.85,0,0,0,107.49,42.49Z"/><path class="cls-1" d="M107.31,22.69H79.58a.87.87,0,0,0-.85.89v15.9a.87.87,0,0,0,.85.9h27.73a.87.87,0,0,0,.85-.9V23.58A.87.87,0,0,0,107.31,22.69Z"/><path class="cls-1" d="M47.6,40.38H75.33a.87.87,0,0,0,.85-.9V23.58a.87.87,0,0,0-.85-.89H47.6a.87.87,0,0,0-.85.89v15.9A.87.87,0,0,0,47.6,40.38Z"/><rect class="cls-2" x="15.24" y="55.49" width="83.76" height="5.66"/><rect class="cls-3" x="15.24" y="66.81" width="34.52" height="5.66"/><rect class="cls-4" x="53.72" y="66.81" width="34.52" height="5.66"/><rect class="cls-4" x="15.24" y="77.85" width="83.76" height="5.66"/><rect class="cls-4" x="15.24" y="89.17" width="18.68" height="5.66"/><rect class="cls-3" x="36.74" y="89.17" width="62.26" height="5.66"/><text class="cls-5" transform="translate(140.72 78.26)">tab<tspan class="cls-6" x="73.36" y="0">edi</tspan><tspan class="cls-7" x="142.84" y="0">t</tspan><tspan class="cls-8" x="160.42" y="0">or</tspan></text></svg>